<svg width="21" height="21" viewBox="0 0 21 21" fill="none" xmlns="http://www.w3.org/2000/svg">
<path d="M15.8775 19.3162H4.12237C2.4987 19.3162 1.18359 18.0011 1.18359 16.3775V4.62237C1.18359 2.9987 2.4987 1.68359 4.12237 1.68359H15.8775C17.5011 1.68359 18.8162 2.9987 18.8162 4.62237V16.3775C18.8162 18.0011 17.5011 19.3162 15.8775 19.3162Z" stroke="#222222" stroke-width="1.5" stroke-miterlimit="10" stroke-linecap="round" stroke-linejoin="round"/>
<path d="M9.99988 8.31302C10.6761 8.31302 11.2244 7.76261 11.2244 7.08364C11.2244 6.40466 10.6761 5.85425 9.99988 5.85425C9.32361 5.85425 8.77539 6.40466 8.77539 7.08364C8.77539 7.76261 9.32361 8.31302 9.99988 8.31302Z" stroke="#222222" stroke-width="1.5" stroke-miterlimit="10" stroke-linecap="round" stroke-linejoin="round"/>
<path d="M10 15.1457V10.9702" stroke="#222222" stroke-width="1.5" stroke-miterlimit="10" stroke-linecap="round" stroke-linejoin="round"/>
</svg>
