<svg width="20" height="20" viewBox="0 0 20 20" fill="none" xmlns="http://www.w3.org/2000/svg">
<path d="M15.7332 2.73363H13.9657V3.66671C13.9657 4.17089 13.5182 4.57925 12.9657 4.57925H6.55574C6.00324 4.57925 5.55574 4.17089 5.55574 3.66671V2.73363H3.78824C2.11574 2.73363 0.760742 3.97013 0.760742 5.49636V16.3967C0.760742 17.923 2.11574 19.1595 3.78824 19.1595H15.7332C17.4057 19.1595 18.7607 17.923 18.7607 16.3967V5.49636C18.7607 3.97013 17.4057 2.73363 15.7332 2.73363Z" stroke="#222222" stroke-width="1.5" stroke-miterlimit="10" stroke-linecap="round" stroke-linejoin="round"/>
<path d="M13.9658 2.73363V2.07203C13.9658 1.56785 13.5183 1.15948 12.9658 1.15948H6.55579C6.00329 1.15948 5.55579 1.56785 5.55579 2.07203V2.73363" stroke="#222222" stroke-width="1.5" stroke-miterlimit="10" stroke-linecap="round" stroke-linejoin="round"/>
<path d="M4.35681 11.5977H7.98861" stroke="#222222" stroke-width="1.5" stroke-miterlimit="10" stroke-linecap="round" stroke-linejoin="round"/>
<path d="M4.29565 8.33502H14.7072" stroke="#222222" stroke-width="1.5" stroke-miterlimit="10" stroke-linecap="round" stroke-linejoin="round"/>
</svg>
